<svg width="39" height="28" viewBox="0 0 39 28" fill="none" xmlns="http://www.w3.org/2000/svg">
<path d="M1.94989 27.6884L0 23.0087C2.79484 21.7737 4.97221 20.1163 6.53212 18.0364C8.09203 16.0216 8.83948 13.7142 8.77449 11.1143C8.5795 11.1793 8.25452 11.2118 7.79954 11.2118C6.23963 11.2118 4.87471 10.7569 3.70478 9.84692C2.59985 8.87198 2.04738 7.47456 2.04738 5.65467C2.04738 3.89977 2.63235 2.53485 3.80228 1.55991C4.97221 0.51997 6.36963 0 7.99453 0C10.0744 0 11.6993 0.84495 12.8692 2.53485C14.1042 4.22475 14.7216 6.53212 14.7216 9.45695C14.7216 13.6817 13.5842 17.354 11.3093 20.4738C9.03447 23.5936 5.91465 25.9985 1.94989 27.6884Z" fill="#DB08A0"/>
<path d="M26.2282 27.6884L24.2784 23.0087C27.0732 21.7737 29.2506 20.1163 30.8105 18.0364C32.3704 16.0216 33.1178 13.7142 33.0528 11.1143C32.8579 11.1793 32.5329 11.2118 32.0779 11.2118C30.518 11.2118 29.1531 10.7569 27.9831 9.84692C26.8782 8.87198 26.3257 7.47456 26.3257 5.65467C26.3257 3.89977 26.9107 2.53485 28.0806 1.55991C29.2506 0.51997 30.648 0 32.2729 0C34.3528 0 35.9777 0.84495 37.1476 2.53485C38.3825 4.22475 39 6.53212 39 9.45695C39 13.6817 37.8626 17.354 35.5877 20.4738C33.3128 23.5936 30.193 25.9985 26.2282 27.6884Z" fill="#DB08A0"/>
</svg>
